<?xml version="1.0" encoding="utf-8"?>
<!-- Generator: Adobe Illustrator 22.0.1, SVG Export Plug-In . SVG Version: 6.00 Build 0)  -->
<svg version="1.1" id="Layer_1" xmlns="http://www.w3.org/2000/svg" xmlns:xlink="http://www.w3.org/1999/xlink" x="0px" y="0px"
	 viewBox="0 0 1920 100" style="enable-background:new 0 0 1920 100;" xml:space="preserve">
<style type="text/css">
	.st0{fill:#1C1C1C;}
</style>
<circle class="st0" cx="17.5" cy="100.5" r="47"/>
<circle class="st0" cx="78.5" cy="97.5" r="31"/>
<circle class="st0" cx="2.5" cy="40.5" r="31"/>
<circle class="st0" cx="118" cy="119" r="33.5"/>
<circle class="st0" cx="170.5" cy="84.5" r="47"/>
<circle class="st0" cx="218.5" cy="107.5" r="47"/>
<circle class="st0" cx="387.5" cy="131.5" r="47"/>
<circle class="st0" cx="265.5" cy="77.5" r="31"/>
<circle class="st0" cx="312.5" cy="107.5" r="47"/>
<circle class="st0" cx="439.5" cy="84.5" r="47"/>
<circle class="st0" cx="496.5" cy="99.5" r="31"/>
<circle class="st0" cx="566.5" cy="108.5" r="47"/>
<circle class="st0" cx="648.5" cy="83.5" r="47"/>
<circle class="st0" cx="695.5" cy="124.5" r="47"/>
<circle class="st0" cx="762.5" cy="124.5" r="47"/>
<circle class="st0" cx="818" cy="77" r="37.5"/>
<circle class="st0" cx="857.5" cy="107.5" r="47"/>
<circle class="st0" cx="915" cy="77" r="38.5"/>
<circle class="st0" cx="961.5" cy="124.5" r="47"/>
<circle class="st0" cx="1038" cy="91" r="38.5"/>
<circle class="st0" cx="1109.5" cy="118.5" r="47"/>
<circle class="st0" cx="1177.5" cy="107.5" r="36"/>
<circle class="st0" cx="1230.5" cy="76.5" r="38"/>
<circle class="st0" cx="1298.5" cy="100.5" r="47"/>
<circle class="st0" cx="1361.5" cy="107.5" r="29"/>
<circle class="st0" cx="1426.5" cy="107.5" r="47"/>
<circle class="st0" cx="1473" cy="83" r="30.5"/>
<circle class="st0" cx="1667.5" cy="28.5" r="18"/>
<circle class="st0" cx="1306.5" cy="50.5" r="18"/>
<circle class="st0" cx="1017.5" cy="56.5" r="18"/>
<circle class="st0" cx="718.5" cy="53.5" r="18"/>
<circle class="st0" cx="478.5" cy="46.5" r="18"/>
<circle class="st0" cx="128.5" cy="53.5" r="18"/>
<circle class="st0" cx="35.5" cy="50.5" r="18"/>
<circle class="st0" cx="47" cy="22" r="7.5"/>
<circle class="st0" cx="110" cy="62" r="7.5"/>
<circle class="st0" cx="214" cy="46" r="7.5"/>
<circle class="st0" cx="363" cy="78" r="7.5"/>
<circle class="st0" cx="380" cy="59" r="7.5"/>
<circle class="st0" cx="491" cy="17" r="7.5"/>
<circle class="st0" cx="701" cy="25" r="7.5"/>
<circle class="st0" cx="860" cy="47" r="7.5"/>
<circle class="st0" cx="1028" cy="36" r="7.5"/>
<circle class="st0" cx="1144" cy="69" r="7.5"/>
<circle class="st0" cx="1084" cy="56" r="7.5"/>
<circle class="st0" cx="1325" cy="46" r="7.5"/>
<circle class="st0" cx="1505" cy="53" r="7.5"/>
<circle class="st0" cx="1650" cy="50" r="7.5"/>
<circle class="st0" cx="1749" cy="61" r="7.5"/>
<circle class="st0" cx="1891" cy="45" r="7.5"/>
<circle class="st0" cx="1848.4" cy="57" r="7.5"/>
<circle class="st0" cx="611" cy="50" r="7.5"/>
<circle class="st0" cx="577" cy="58" r="7.5"/>
<circle class="st0" cx="1919.5" cy="20.5" r="18"/>
<circle class="st0" cx="1527.5" cy="110.5" r="47"/>
<circle class="st0" cx="1602.5" cy="82.5" r="47"/>
<circle class="st0" cx="1659.5" cy="129.5" r="47"/>
<circle class="st0" cx="1706.5" cy="99.5" r="47"/>
<circle class="st0" cx="1773.5" cy="125.5" r="47"/>
<circle class="st0" cx="1841" cy="123" r="40.5"/>
<circle class="st0" cx="1901.5" cy="91.5" r="47"/>
</svg>
