<?xml version="1.0" encoding="utf-8"?>
<!-- Generator: Adobe Illustrator 22.0.1, SVG Export Plug-In . SVG Version: 6.00 Build 0)  -->
<svg version="1.1" xmlns="http://www.w3.org/2000/svg" xmlns:xlink="http://www.w3.org/1999/xlink" x="0px" y="0px"
	 viewBox="0 0 1920 44.3" style="enable-background:new 0 0 1920 44.3;" xml:space="preserve">
<style type="text/css">
	.st0{display:none;}
	.st1{display:inline;fill:#1C1C1C;}
	.st2{fill:#1C1C1C;}
</style>
<g id="Layer_1" class="st0">
	<circle class="st1" cx="17.5" cy="44.8" r="47"/>
	<circle class="st1" cx="78.5" cy="41.8" r="31"/>
	<circle class="st1" cx="2.5" cy="-15.2" r="31"/>
	<circle class="st1" cx="118" cy="63.3" r="33.5"/>
	<circle class="st1" cx="170.5" cy="28.8" r="47"/>
	<circle class="st1" cx="218.5" cy="51.8" r="47"/>
	<circle class="st1" cx="387.5" cy="75.8" r="47"/>
	<circle class="st1" cx="265.5" cy="21.8" r="31"/>
	<circle class="st1" cx="312.5" cy="51.8" r="47"/>
	<circle class="st1" cx="439.5" cy="28.8" r="47"/>
	<circle class="st1" cx="496.5" cy="43.8" r="31"/>
	<circle class="st1" cx="566.5" cy="52.8" r="47"/>
	<circle class="st1" cx="648.5" cy="27.8" r="47"/>
	<circle class="st1" cx="695.5" cy="68.8" r="47"/>
	<circle class="st1" cx="762.5" cy="68.8" r="47"/>
	<circle class="st1" cx="818" cy="21.3" r="37.5"/>
	<circle class="st1" cx="857.5" cy="51.8" r="47"/>
	<circle class="st1" cx="915" cy="21.3" r="38.5"/>
	<circle class="st1" cx="961.5" cy="68.8" r="47"/>
	<circle class="st1" cx="1038" cy="35.3" r="38.5"/>
	<circle class="st1" cx="1109.5" cy="62.8" r="47"/>
	<circle class="st1" cx="1177.5" cy="51.8" r="36"/>
	<circle class="st1" cx="1230.5" cy="20.8" r="38"/>
	<circle class="st1" cx="1298.5" cy="44.8" r="47"/>
	<circle class="st1" cx="1361.5" cy="51.8" r="29"/>
	<circle class="st1" cx="1426.5" cy="51.8" r="47"/>
	<circle class="st1" cx="1473" cy="27.3" r="30.5"/>
	<circle class="st1" cx="1667.5" cy="-27.2" r="18"/>
	<circle class="st1" cx="1306.5" cy="-5.2" r="18"/>
	<circle class="st1" cx="1017.5" cy="0.8" r="18"/>
	<circle class="st1" cx="718.5" cy="-2.2" r="18"/>
	<circle class="st1" cx="478.5" cy="-9.2" r="18"/>
	<circle class="st1" cx="128.5" cy="-2.2" r="18"/>
	<circle class="st1" cx="35.5" cy="-5.2" r="18"/>
	<circle class="st1" cx="47" cy="-33.7" r="7.5"/>
	<circle class="st1" cx="110" cy="6.3" r="7.5"/>
	<circle class="st1" cx="214" cy="-9.7" r="7.5"/>
	<circle class="st1" cx="363" cy="22.3" r="7.5"/>
	<circle class="st1" cx="380" cy="3.3" r="7.5"/>
	<circle class="st1" cx="491" cy="-38.7" r="7.5"/>
	<circle class="st1" cx="701" cy="-30.7" r="7.5"/>
	<circle class="st1" cx="860" cy="-8.7" r="7.5"/>
	<circle class="st1" cx="1028" cy="-19.7" r="7.5"/>
	<circle class="st1" cx="1144" cy="13.3" r="7.5"/>
	<circle class="st1" cx="1084" cy="0.3" r="7.5"/>
	<circle class="st1" cx="1325" cy="-9.7" r="7.5"/>
	<circle class="st1" cx="1505" cy="-2.7" r="7.5"/>
	<circle class="st1" cx="1650" cy="-5.7" r="7.5"/>
	<circle class="st1" cx="1749" cy="5.3" r="7.5"/>
	<circle class="st1" cx="1891" cy="-10.7" r="7.5"/>
	<circle class="st1" cx="1848.4" cy="1.3" r="7.5"/>
	<circle class="st1" cx="611" cy="-5.7" r="7.5"/>
	<circle class="st1" cx="577" cy="2.3" r="7.5"/>
	<circle class="st1" cx="1919.5" cy="-35.2" r="18"/>
	<circle class="st1" cx="1527.5" cy="54.8" r="47"/>
	<circle class="st1" cx="1602.5" cy="26.8" r="47"/>
	<circle class="st1" cx="1659.5" cy="73.8" r="47"/>
	<circle class="st1" cx="1706.5" cy="43.8" r="47"/>
	<circle class="st1" cx="1773.5" cy="69.8" r="47"/>
	<circle class="st1" cx="1841" cy="67.3" r="40.5"/>
	<circle class="st1" cx="1901.5" cy="35.8" r="47"/>
</g>
<g id="Layer_2">
	<polygon class="st2" points="0.3,0.3 -19.3,44.3 19.9,44.3 	"/>
	<polygon class="st2" points="39.5,0.3 19.9,44.3 59.1,44.3 	"/>
	<polygon class="st2" points="78.6,0.3 59.1,44.3 98.2,44.3 	"/>
	<polygon class="st2" points="117.8,0.3 98.2,44.3 137.4,44.3 	"/>
	<polygon class="st2" points="157,0.3 137.4,44.3 176.6,44.3 	"/>
	<polygon class="st2" points="196.2,0.3 176.6,44.3 215.8,44.3 	"/>
	<polygon class="st2" points="235.4,0.3 215.8,44.3 254.9,44.3 	"/>
	<polygon class="st2" points="274.5,0.3 254.9,44.3 294.1,44.3 	"/>
	<polygon class="st2" points="313.7,0.3 294.1,44.3 333.3,44.3 	"/>
	<polygon class="st2" points="352.9,0.3 333.3,44.3 372.5,44.3 	"/>
	<polygon class="st2" points="392.1,0.3 372.5,44.3 411.7,44.3 	"/>
	<polygon class="st2" points="431.3,0.3 411.7,44.3 450.8,44.3 	"/>
	<polygon class="st2" points="470.4,0.3 450.8,44.3 490,44.3 	"/>
	<polygon class="st2" points="509.6,0.3 490,44.3 529.2,44.3 	"/>
	<polygon class="st2" points="548.8,0.3 529.2,44.3 568.4,44.3 	"/>
	<polygon class="st2" points="588,0.3 568.4,44.3 607.6,44.3 	"/>
	<polygon class="st2" points="627.1,0.3 607.6,44.3 646.7,44.3 	"/>
	<polygon class="st2" points="666.3,0.3 646.7,44.3 685.9,44.3 	"/>
	<polygon class="st2" points="705.5,0.3 685.9,44.3 725.1,44.3 	"/>
	<polygon class="st2" points="744.7,0.3 725.1,44.3 764.3,44.3 	"/>
	<polygon class="st2" points="783.9,0.3 764.3,44.3 803.4,44.3 	"/>
	<polygon class="st2" points="823,0.3 803.4,44.3 842.6,44.3 	"/>
	<polygon class="st2" points="862.2,0.3 842.6,44.3 881.8,44.3 	"/>
	<polygon class="st2" points="901.4,0.3 881.8,44.3 921,44.3 	"/>
	<polygon class="st2" points="940.6,0.3 921,44.3 960.2,44.3 	"/>
	<polygon class="st2" points="979.7,0.3 960.2,44.3 999.3,44.3 	"/>
	<polygon class="st2" points="1018.9,0.3 999.3,44.3 1038.5,44.3 	"/>
	<polygon class="st2" points="1058.1,0.3 1038.5,44.3 1077.7,44.3 	"/>
	<polygon class="st2" points="1097.3,0.3 1077.7,44.3 1116.9,44.3 	"/>
	<polygon class="st2" points="1136.5,0.3 1116.9,44.3 1156.1,44.3 	"/>
	<polygon class="st2" points="1175.6,0.3 1156.1,44.3 1195.2,44.3 	"/>
	<polygon class="st2" points="1214.8,0.3 1195.2,44.3 1234.4,44.3 	"/>
	<polygon class="st2" points="1254,0.3 1234.4,44.3 1273.6,44.3 	"/>
	<polygon class="st2" points="1293.2,0.3 1273.6,44.3 1312.8,44.3 	"/>
	<polygon class="st2" points="1332.4,0.3 1312.8,44.3 1351.9,44.3 	"/>
	<polygon class="st2" points="1371.5,0.3 1351.9,44.3 1391.1,44.3 	"/>
	<polygon class="st2" points="1410.7,0.3 1391.1,44.3 1430.3,44.3 	"/>
	<polygon class="st2" points="1449.9,0.3 1430.3,44.3 1469.5,44.3 	"/>
	<polygon class="st2" points="1489.1,0.3 1469.5,44.3 1508.7,44.3 	"/>
	<polygon class="st2" points="1528.2,0.3 1508.7,44.3 1547.8,44.3 	"/>
	<polygon class="st2" points="1567.4,0.3 1547.8,44.3 1587,44.3 	"/>
	<polygon class="st2" points="1606.6,0.3 1587,44.3 1626.2,44.3 	"/>
	<polygon class="st2" points="1645.8,0.3 1626.2,44.3 1665.4,44.3 	"/>
	<polygon class="st2" points="1685,0.3 1665.4,44.3 1704.5,44.3 	"/>
	<polygon class="st2" points="1724.1,0.3 1704.5,44.3 1743.7,44.3 	"/>
	<polygon class="st2" points="1763.3,0.3 1743.7,44.3 1782.9,44.3 	"/>
	<polygon class="st2" points="1802.5,0.3 1782.9,44.3 1822.1,44.3 	"/>
	<polygon class="st2" points="1841.7,0.3 1822.1,44.3 1861.3,44.3 	"/>
	<polygon class="st2" points="1880.9,0.3 1861.3,44.3 1900.4,44.3 	"/>
	<polygon class="st2" points="1920,0.3 1900.4,44.3 1939.6,44.3 	"/>
</g>
</svg>
